<?xml version="1.0" encoding="UTF-8" standalone="no"?><svg xmlns="http://www.w3.org/2000/svg" xmlns:xlink="http://www.w3.org/1999/xlink" contentStyleType="text/css" height="679px" preserveAspectRatio="none" style="width:1746px;height:679px;background:#FFFFFF;" version="1.1" viewBox="0 0 1746 679" width="1746px" zoomAndPan="magnify"><defs/><g><!--MD5=[4d993e3b5e5db392c1a7edb9e6a562f2]
cluster [Software]--><g id="cluster_[Software]"><path d="M8.5,6 L81.5,6 A3.75,3.75 0 0 1 84,8.5 L91,29.6094 L1736.5,29.6094 A2.5,2.5 0 0 1 1739,32.1094 L1739,669.5 A2.5,2.5 0 0 1 1736.5,672 L8.5,672 A2.5,2.5 0 0 1 6,669.5 L6,8.5 A2.5,2.5 0 0 1 8.5,6 " fill="none" style="stroke:#000000;stroke-width:1.5;"/><line style="stroke:#000000;stroke-width:1.5;" x1="6" x2="91" y1="29.6094" y2="29.6094"/><text fill="#000000" font-family="sans-serif" font-size="14" font-weight="bold" lengthAdjust="spacing" textLength="72" x="10" y="22.5332">[Software]</text></g><!--MD5=[4f101ae0b1d8a7a63855cde58fe98f34]
cluster [Project]--><g id="cluster_[Project]"><path d="M456.5,50 L517.5,50 A3.75,3.75 0 0 1 520,52.5 L527,73.6094 L1712.5,73.6094 A2.5,2.5 0 0 1 1715,76.1094 L1715,645.5 A2.5,2.5 0 0 1 1712.5,648 L456.5,648 A2.5,2.5 0 0 1 454,645.5 L454,52.5 A2.5,2.5 0 0 1 456.5,50 " fill="none" style="stroke:#000000;stroke-width:1.5;"/><line style="stroke:#000000;stroke-width:1.5;" x1="454" x2="527" y1="73.6094" y2="73.6094"/><text fill="#000000" font-family="sans-serif" font-size="14" font-weight="bold" lengthAdjust="spacing" textLength="60" x="458" y="66.5332">[Project]</text></g><!--MD5=[6937ca7c2a2d22ceb4671add41311046]
cluster DynamicItem--><g id="cluster_DynamicItem"><path d="M1105.5,94 L1194.5,94 A3.75,3.75 0 0 1 1197,96.5 L1204,117.6094 L1688.5,117.6094 A2.5,2.5 0 0 1 1691,120.1094 L1691,249.5 A2.5,2.5 0 0 1 1688.5,252 L1105.5,252 A2.5,2.5 0 0 1 1103,249.5 L1103,96.5 A2.5,2.5 0 0 1 1105.5,94 " fill="none" style="stroke:#000000;stroke-width:1.5;"/><line style="stroke:#000000;stroke-width:1.5;" x1="1103" x2="1204" y1="117.6094" y2="117.6094"/><text fill="#000000" font-family="sans-serif" font-size="14" font-weight="bold" lengthAdjust="spacing" textLength="88" x="1107" y="110.5332">DynamicItem</text></g><!--MD5=[0c82834ae5d8e0f1970ed4b68e9483e1]
cluster [DynamicItem2]--><g id="cluster_[DynamicItem2]"><path d="M1420.5,138 L1527.5,138 A3.75,3.75 0 0 1 1530,140.5 L1537,161.6094 L1664.5,161.6094 A2.5,2.5 0 0 1 1667,164.1094 L1667,225.5 A2.5,2.5 0 0 1 1664.5,228 L1420.5,228 A2.5,2.5 0 0 1 1418,225.5 L1418,140.5 A2.5,2.5 0 0 1 1420.5,138 " fill="none" style="stroke:#000000;stroke-width:1.5;"/><line style="stroke:#000000;stroke-width:1.5;" x1="1418" x2="1537" y1="161.6094" y2="161.6094"/><text fill="#000000" font-family="sans-serif" font-size="14" font-weight="bold" lengthAdjust="spacing" textLength="106" x="1422" y="154.5332">[DynamicItem2]</text></g><!--MD5=[87500d993099a696f32f7d882c7cd408]
cluster [DynamicItem1]--><g id="cluster_[DynamicItem1]"><path d="M1129.5,138 L1236.5,138 A3.75,3.75 0 0 1 1239,140.5 L1246,161.6094 L1391.5,161.6094 A2.5,2.5 0 0 1 1394,164.1094 L1394,225.5 A2.5,2.5 0 0 1 1391.5,228 L1129.5,228 A2.5,2.5 0 0 1 1127,225.5 L1127,140.5 A2.5,2.5 0 0 1 1129.5,138 " fill="none" style="stroke:#000000;stroke-width:1.5;"/><line style="stroke:#000000;stroke-width:1.5;" x1="1127" x2="1246" y1="161.6094" y2="161.6094"/><text fill="#000000" font-family="sans-serif" font-size="14" font-weight="bold" lengthAdjust="spacing" textLength="106" x="1131" y="154.5332">[DynamicItem1]</text></g><!--MD5=[9bc16c95124c1ec95b9aedfd904a8c4e]
cluster SingleItem--><g id="cluster_SingleItem"><path d="M796.5,138 L871.5,138 A3.75,3.75 0 0 1 874,140.5 L881,161.6094 L1076.5,161.6094 A2.5,2.5 0 0 1 1079,164.1094 L1079,341.5 A2.5,2.5 0 0 1 1076.5,344 L796.5,344 A2.5,2.5 0 0 1 794,341.5 L794,140.5 A2.5,2.5 0 0 1 796.5,138 " fill="none" style="stroke:#000000;stroke-width:1.5;"/><line style="stroke:#000000;stroke-width:1.5;" x1="794" x2="881" y1="161.6094" y2="161.6094"/><text fill="#000000" font-family="sans-serif" font-size="14" font-weight="bold" lengthAdjust="spacing" textLength="74" x="798" y="154.5332">SingleItem</text></g><!--MD5=[ad2e90015c3d378e2dbf577848912991]
cluster MultipleItem--><g id="cluster_MultipleItem"><path d="M480.5,138 L568.5,138 A3.75,3.75 0 0 1 571,140.5 L578,161.6094 L767.5,161.6094 A2.5,2.5 0 0 1 770,164.1094 L770,341.5 A2.5,2.5 0 0 1 767.5,344 L480.5,344 A2.5,2.5 0 0 1 478,341.5 L478,140.5 A2.5,2.5 0 0 1 480.5,138 " fill="none" style="stroke:#000000;stroke-width:1.5;"/><line style="stroke:#000000;stroke-width:1.5;" x1="478" x2="578" y1="161.6094" y2="161.6094"/><text fill="#000000" font-family="sans-serif" font-size="14" font-weight="bold" lengthAdjust="spacing" textLength="87" x="482" y="154.5332">MultipleItem</text></g><!--MD5=[6286357203fe2ed11deae8edda42acbf]
cluster [Movie]--><g id="cluster_[Movie]"><path d="M737.5,368 L792.5,368 A3.75,3.75 0 0 1 795,370.5 L802,391.6094 L1688.5,391.6094 A2.5,2.5 0 0 1 1691,394.1094 L1691,621.5 A2.5,2.5 0 0 1 1688.5,624 L737.5,624 A2.5,2.5 0 0 1 735,621.5 L735,370.5 A2.5,2.5 0 0 1 737.5,368 " fill="none" style="stroke:#000000;stroke-width:1.5;"/><line style="stroke:#000000;stroke-width:1.5;" x1="735" x2="802" y1="391.6094" y2="391.6094"/><text fill="#000000" font-family="sans-serif" font-size="14" font-weight="bold" lengthAdjust="spacing" textLength="54" x="739" y="384.5332">[Movie]</text></g><!--MD5=[04df329b727f7208b4816b7cac284097]
cluster [Dynamic Item1]--><g id="cluster_[Dynamic Item1]"><path d="M1418.5,412 L1529.5,412 A3.75,3.75 0 0 1 1532,414.5 L1539,435.6094 L1664.5,435.6094 A2.5,2.5 0 0 1 1667,438.1094 L1667,597.5 A2.5,2.5 0 0 1 1664.5,600 L1418.5,600 A2.5,2.5 0 0 1 1416,597.5 L1416,414.5 A2.5,2.5 0 0 1 1418.5,412 " fill="none" style="stroke:#000000;stroke-width:1.5;"/><line style="stroke:#000000;stroke-width:1.5;" x1="1416" x2="1539" y1="435.6094" y2="435.6094"/><text fill="#000000" font-family="sans-serif" font-size="14" font-weight="bold" lengthAdjust="spacing" textLength="110" x="1420" y="428.5332">[Dynamic Item1]</text></g><!--MD5=[b3bf1d00b0fac6e06fcf2bfa3649019d]
cluster [Dynamic Item2]--><g id="cluster_[Dynamic Item2]"><path d="M1133.5,412 L1244.5,412 A3.75,3.75 0 0 1 1247,414.5 L1254,435.6094 L1389.5,435.6094 A2.5,2.5 0 0 1 1392,438.1094 L1392,597.5 A2.5,2.5 0 0 1 1389.5,600 L1133.5,600 A2.5,2.5 0 0 1 1131,597.5 L1131,414.5 A2.5,2.5 0 0 1 1133.5,412 " fill="none" style="stroke:#000000;stroke-width:1.5;"/><line style="stroke:#000000;stroke-width:1.5;" x1="1131" x2="1254" y1="435.6094" y2="435.6094"/><text fill="#000000" font-family="sans-serif" font-size="14" font-weight="bold" lengthAdjust="spacing" textLength="110" x="1135" y="428.5332">[Dynamic Item2]</text></g><!--MD5=[45a82169b3091405c8dc80cf7f697352]
cluster Characters--><g id="cluster_Characters"><path d="M40.5,404 L118.5,404 A3.75,3.75 0 0 1 121,406.5 L128,427.6094 L419.5,427.6094 A2.5,2.5 0 0 1 422,430.1094 L422,605.5 A2.5,2.5 0 0 1 419.5,608 L40.5,608 A2.5,2.5 0 0 1 38,605.5 L38,406.5 A2.5,2.5 0 0 1 40.5,404 " fill="none" style="stroke:#000000;stroke-width:1.5;"/><line style="stroke:#000000;stroke-width:1.5;" x1="38" x2="128" y1="427.6094" y2="427.6094"/><text fill="#000000" font-family="sans-serif" font-size="14" font-weight="bold" lengthAdjust="spacing" textLength="77" x="42" y="420.5332">Characters</text></g><!--MD5=[52f0812895d59db5b5b3524777970076]
entity キャラ素材--><g id="elem_キャラ素材"><path d="M55.5,165 L96.5,165 A3.75,3.75 0 0 1 99,167.5 L106,186 L150.5,186 A2.5,2.5 0 0 1 153,188.5 L153,218.1094 A2.5,2.5 0 0 1 150.5,220.6094 L55.5,220.6094 A2.5,2.5 0 0 1 53,218.1094 L53,167.5 A2.5,2.5 0 0 1 55.5,165 " fill="#F1F1F1" style="stroke:#181818;stroke-width:0.5;"/><line style="stroke:#181818;stroke-width:0.5;" x1="53" x2="106" y1="186" y2="186"/><text fill="#000000" font-family="sans-serif" font-size="14" lengthAdjust="spacing" textLength="70" x="63" y="207.5332">キャラ素材</text></g><!--MD5=[2c3262a708a7ae9908225aa06eb8308f]
entity YukkuriMovieMaker4--><g id="elem_YukkuriMovieMaker4"><path d="M25,281 L66,281 A3.75,3.75 0 0 1 68.5,283.5 L75.5,302 L181,302 A2.5,2.5 0 0 1 183.5,304.5 L183.5,334.1094 A2.5,2.5 0 0 1 181,336.6094 L25,336.6094 A2.5,2.5 0 0 1 22.5,334.1094 L22.5,283.5 A2.5,2.5 0 0 1 25,281 " fill="#F1F1F1" style="stroke:#181818;stroke-width:0.5;"/><line style="stroke:#181818;stroke-width:0.5;" x1="22.5" x2="75.5" y1="302" y2="302"/><text fill="#000000" font-family="sans-serif" font-size="14" lengthAdjust="spacing" textLength="131" x="32.5" y="323.5332">YukkuriMovieMaker4</text></g><!--MD5=[13e03bc92e951449227c8ea84a9010c8]
entity audio.ymmp--><g id="elem_audio.ymmp"><path d="M1555,176.5 L1555,209.1094 A2.5,2.5 0 0 0 1557.5,211.6094 L1648.5,211.6094 A2.5,2.5 0 0 0 1651,209.1094 L1651,184 L1641,174 L1557.5,174 A2.5,2.5 0 0 0 1555,176.5 " fill="#F1F1F1" style="stroke:#181818;stroke-width:0.5;"/><path d="M1641,174 L1641,181.5 A2.5,2.5 0 0 0 1643.5,184 L1651,184 " fill="#F1F1F1" style="stroke:#181818;stroke-width:0.5;"/><text fill="#000000" font-family="sans-serif" font-size="14" lengthAdjust="spacing" textLength="76" x="1565" y="198.5332">audio.ymmp</text></g><!--MD5=[c20cc7ed131999956ea2e419222d0f4e]
entity audio.mp3--><g id="elem_audio.mp3"><path d="M1434,176.5 L1434,209.1094 A2.5,2.5 0 0 0 1436.5,211.6094 L1517.5,211.6094 A2.5,2.5 0 0 0 1520,209.1094 L1520,184 L1510,174 L1436.5,174 A2.5,2.5 0 0 0 1434,176.5 " fill="#F1F1F1" style="stroke:#181818;stroke-width:0.5;"/><path d="M1510,174 L1510,181.5 A2.5,2.5 0 0 0 1512.5,184 L1520,184 " fill="#F1F1F1" style="stroke:#181818;stroke-width:0.5;"/><text fill="#000000" font-family="sans-serif" font-size="14" lengthAdjust="spacing" textLength="66" x="1444" y="198.5332">audio.mp3</text></g><!--MD5=[d5c3093ce956091bccc3e2621f9aeebd]
entity sample.ymmp--><g id="elem_sample.ymmp"><path d="M1272,176.5 L1272,209.1094 A2.5,2.5 0 0 0 1274.5,211.6094 L1375.5,211.6094 A2.5,2.5 0 0 0 1378,209.1094 L1378,184 L1368,174 L1274.5,174 A2.5,2.5 0 0 0 1272,176.5 " fill="#F1F1F1" style="stroke:#181818;stroke-width:0.5;"/><path d="M1368,174 L1368,181.5 A2.5,2.5 0 0 0 1370.5,184 L1378,184 " fill="#F1F1F1" style="stroke:#181818;stroke-width:0.5;"/><text fill="#000000" font-family="sans-serif" font-size="14" lengthAdjust="spacing" textLength="86" x="1282" y="198.5332">sample.ymmp</text></g><!--MD5=[d4fe5767af8911c877de4ebffd165dc1]
entity sample.png--><g id="elem_sample.png"><path d="M1143.5,176.5 L1143.5,209.1094 A2.5,2.5 0 0 0 1146,211.6094 L1234,211.6094 A2.5,2.5 0 0 0 1236.5,209.1094 L1236.5,184 L1226.5,174 L1146,174 A2.5,2.5 0 0 0 1143.5,176.5 " fill="#F1F1F1" style="stroke:#181818;stroke-width:0.5;"/><path d="M1226.5,174 L1226.5,181.5 A2.5,2.5 0 0 0 1229,184 L1236.5,184 " fill="#F1F1F1" style="stroke:#181818;stroke-width:0.5;"/><text fill="#000000" font-family="sans-serif" font-size="14" lengthAdjust="spacing" textLength="73" x="1153.5" y="198.5332">sample.png</text></g><!--MD5=[0c866208f69698a5621fc822241de71f]
entity single_item.ymmp--><g id="elem_single_item.ymmp"><path d="M810,176.5 L810,209.1094 A2.5,2.5 0 0 0 812.5,211.6094 L939.5,211.6094 A2.5,2.5 0 0 0 942,209.1094 L942,184 L932,174 L812.5,174 A2.5,2.5 0 0 0 810,176.5 " fill="#F1F1F1" style="stroke:#181818;stroke-width:0.5;"/><path d="M932,174 L932,181.5 A2.5,2.5 0 0 0 934.5,184 L942,184 " fill="#F1F1F1" style="stroke:#181818;stroke-width:0.5;"/><text fill="#000000" font-family="sans-serif" font-size="14" lengthAdjust="spacing" textLength="112" x="820" y="198.5332">single_item.ymmp</text></g><!--MD5=[4c64affa8917c3aa7c63c62f07612c28]
entity image.png--><g id="elem_image.png"><path d="M977,176.5 L977,209.1094 A2.5,2.5 0 0 0 979.5,211.6094 L1060.5,211.6094 A2.5,2.5 0 0 0 1063,209.1094 L1063,184 L1053,174 L979.5,174 A2.5,2.5 0 0 0 977,176.5 " fill="#F1F1F1" style="stroke:#181818;stroke-width:0.5;"/><path d="M1053,174 L1053,181.5 A2.5,2.5 0 0 0 1055.5,184 L1063,184 " fill="#F1F1F1" style="stroke:#181818;stroke-width:0.5;"/><text fill="#000000" font-family="sans-serif" font-size="14" lengthAdjust="spacing" textLength="66" x="987" y="198.5332">image.png</text></g><!--MD5=[16faebf8734295ed75ec9e6b22dbe611]
entity sound.mp3--><g id="elem_sound.mp3"><path d="M820,292.5 L820,325.1094 A2.5,2.5 0 0 0 822.5,327.6094 L907.5,327.6094 A2.5,2.5 0 0 0 910,325.1094 L910,300 L900,290 L822.5,290 A2.5,2.5 0 0 0 820,292.5 " fill="#F1F1F1" style="stroke:#181818;stroke-width:0.5;"/><path d="M900,290 L900,297.5 A2.5,2.5 0 0 0 902.5,300 L910,300 " fill="#F1F1F1" style="stroke:#181818;stroke-width:0.5;"/><text fill="#000000" font-family="sans-serif" font-size="14" lengthAdjust="spacing" textLength="70" x="830" y="314.5332">sound.mp3</text></g><!--MD5=[54ed368ff35ec92a60b9733af2392c1f]
entity video.mp4--><g id="elem_video.mp4"><path d="M945.5,292.5 L945.5,325.1094 A2.5,2.5 0 0 0 948,327.6094 L1028,327.6094 A2.5,2.5 0 0 0 1030.5,325.1094 L1030.5,300 L1020.5,290 L948,290 A2.5,2.5 0 0 0 945.5,292.5 " fill="#F1F1F1" style="stroke:#181818;stroke-width:0.5;"/><path d="M1020.5,290 L1020.5,297.5 A2.5,2.5 0 0 0 1023,300 L1030.5,300 " fill="#F1F1F1" style="stroke:#181818;stroke-width:0.5;"/><text fill="#000000" font-family="sans-serif" font-size="14" lengthAdjust="spacing" textLength="65" x="955.5" y="314.5332">video.mp4</text></g><!--MD5=[a09fe533505f8427bc2abf46af8cb064]
entity multiple_item.ymmp--><g id="elem_multiple_item.ymmp"><path d="M494.5,176.5 L494.5,209.1094 A2.5,2.5 0 0 0 497,211.6094 L635,211.6094 A2.5,2.5 0 0 0 637.5,209.1094 L637.5,184 L627.5,174 L497,174 A2.5,2.5 0 0 0 494.5,176.5 " fill="#F1F1F1" style="stroke:#181818;stroke-width:0.5;"/><path d="M627.5,174 L627.5,181.5 A2.5,2.5 0 0 0 630,184 L637.5,184 " fill="#F1F1F1" style="stroke:#181818;stroke-width:0.5;"/><text fill="#000000" font-family="sans-serif" font-size="14" lengthAdjust="spacing" textLength="123" x="504.5" y="198.5332">multiple_item.ymmp</text></g><!--MD5=[77836ca47737270702e62e9bd8fa3376]
entity image.jpg--><g id="elem_image.jpg"><path d="M672.5,176.5 L672.5,209.1094 A2.5,2.5 0 0 0 675,211.6094 L751,211.6094 A2.5,2.5 0 0 0 753.5,209.1094 L753.5,184 L743.5,174 L675,174 A2.5,2.5 0 0 0 672.5,176.5 " fill="#F1F1F1" style="stroke:#181818;stroke-width:0.5;"/><path d="M743.5,174 L743.5,181.5 A2.5,2.5 0 0 0 746,184 L753.5,184 " fill="#F1F1F1" style="stroke:#181818;stroke-width:0.5;"/><text fill="#000000" font-family="sans-serif" font-size="14" lengthAdjust="spacing" textLength="61" x="682.5" y="198.5332">image.jpg</text></g><!--MD5=[50f2c84e258e1238d330199d3143cb55]
entity sound.wav--><g id="elem_sound.wav"><path d="M522.5,292.5 L522.5,325.1094 A2.5,2.5 0 0 0 525,327.6094 L607,327.6094 A2.5,2.5 0 0 0 609.5,325.1094 L609.5,300 L599.5,290 L525,290 A2.5,2.5 0 0 0 522.5,292.5 " fill="#F1F1F1" style="stroke:#181818;stroke-width:0.5;"/><path d="M599.5,290 L599.5,297.5 A2.5,2.5 0 0 0 602,300 L609.5,300 " fill="#F1F1F1" style="stroke:#181818;stroke-width:0.5;"/><text fill="#000000" font-family="sans-serif" font-size="14" lengthAdjust="spacing" textLength="67" x="532.5" y="314.5332">sound.wav</text></g><!--MD5=[1aef13b7d8670687590ff8ff07b00a40]
entity video.avi--><g id="elem_video.avi"><path d="M645,292.5 L645,325.1094 A2.5,2.5 0 0 0 647.5,327.6094 L718.5,327.6094 A2.5,2.5 0 0 0 721,325.1094 L721,300 L711,290 L647.5,290 A2.5,2.5 0 0 0 645,292.5 " fill="#F1F1F1" style="stroke:#181818;stroke-width:0.5;"/><path d="M711,290 L711,297.5 A2.5,2.5 0 0 0 713.5,300 L721,300 " fill="#F1F1F1" style="stroke:#181818;stroke-width:0.5;"/><text fill="#000000" font-family="sans-serif" font-size="14" lengthAdjust="spacing" textLength="56" x="655" y="314.5332">video.avi</text></g><!--MD5=[df3a495b93bd8f92e220d51a7496b180]
entity template.csv--><g id="elem_template.csv"><path d="M751.5,450.5 L751.5,483.1094 A2.5,2.5 0 0 0 754,485.6094 L848,485.6094 A2.5,2.5 0 0 0 850.5,483.1094 L850.5,458 L840.5,448 L754,448 A2.5,2.5 0 0 0 751.5,450.5 " fill="#F1F1F1" style="stroke:#181818;stroke-width:0.5;"/><path d="M840.5,448 L840.5,455.5 A2.5,2.5 0 0 0 843,458 L850.5,458 " fill="#F1F1F1" style="stroke:#181818;stroke-width:0.5;"/><text fill="#000000" font-family="sans-serif" font-size="14" lengthAdjust="spacing" textLength="79" x="761.5" y="472.5332">template.csv</text></g><!--MD5=[c00260a71f10408aabc7f9c6dd61a458]
entity scenario.csv--><g id="elem_scenario.csv"><path d="M885.5,450.5 L885.5,483.1094 A2.5,2.5 0 0 0 888,485.6094 L982,485.6094 A2.5,2.5 0 0 0 984.5,483.1094 L984.5,458 L974.5,448 L888,448 A2.5,2.5 0 0 0 885.5,450.5 " fill="#F1F1F1" style="stroke:#181818;stroke-width:0.5;"/><path d="M974.5,448 L974.5,455.5 A2.5,2.5 0 0 0 977,458 L984.5,458 " fill="#F1F1F1" style="stroke:#181818;stroke-width:0.5;"/><text fill="#000000" font-family="sans-serif" font-size="14" lengthAdjust="spacing" textLength="79" x="895.5" y="472.5332">scenario.csv</text></g><!--MD5=[e5616d5894678c0cf6c36af38f67287d]
entity scenario.txt--><g id="elem_scenario.txt"><path d="M1020,450.5 L1020,483.1094 A2.5,2.5 0 0 0 1022.5,485.6094 L1109.5,485.6094 A2.5,2.5 0 0 0 1112,483.1094 L1112,458 L1102,448 L1022.5,448 A2.5,2.5 0 0 0 1020,450.5 " fill="#F1F1F1" style="stroke:#181818;stroke-width:0.5;"/><path d="M1102,448 L1102,455.5 A2.5,2.5 0 0 0 1104.5,458 L1112,458 " fill="#F1F1F1" style="stroke:#181818;stroke-width:0.5;"/><text fill="#000000" font-family="sans-serif" font-size="14" lengthAdjust="spacing" textLength="72" x="1030" y="472.5332">scenario.txt</text></g><!--MD5=[009bc2487d941c10de941ada7c0cd1e2]
entity Movie.ymmp--><g id="elem_Movie.ymmp"><path d="M752,548.5 L752,581.1094 A2.5,2.5 0 0 0 754.5,583.6094 L847.5,583.6094 A2.5,2.5 0 0 0 850,581.1094 L850,556 L840,546 L754.5,546 A2.5,2.5 0 0 0 752,548.5 " fill="#F1F1F1" style="stroke:#181818;stroke-width:0.5;"/><path d="M840,546 L840,553.5 A2.5,2.5 0 0 0 842.5,556 L850,556 " fill="#F1F1F1" style="stroke:#181818;stroke-width:0.5;"/><text fill="#000000" font-family="sans-serif" font-size="14" lengthAdjust="spacing" textLength="78" x="762" y="570.5332">Movie.ymmp</text></g><!--MD5=[5952a884a1644478483b66611b0dcb00]
entity complete.ymmp--><g id="elem_complete.ymmp"><path d="M885,548.5 L885,581.1094 A2.5,2.5 0 0 0 887.5,583.6094 L1000.5,583.6094 A2.5,2.5 0 0 0 1003,581.1094 L1003,556 L993,546 L887.5,546 A2.5,2.5 0 0 0 885,548.5 " fill="#F1F1F1" style="stroke:#181818;stroke-width:0.5;"/><path d="M993,546 L993,553.5 A2.5,2.5 0 0 0 995.5,556 L1003,556 " fill="#F1F1F1" style="stroke:#181818;stroke-width:0.5;"/><text fill="#000000" font-family="sans-serif" font-size="14" lengthAdjust="spacing" textLength="98" x="895" y="570.5332">complete.ymmp</text></g><!--MD5=[cb924432d711c120d428be19d792071d]
entity image1.jpg--><g id="elem_image1.jpg"><path d="M1432.5,450.5 L1432.5,483.1094 A2.5,2.5 0 0 0 1435,485.6094 L1519,485.6094 A2.5,2.5 0 0 0 1521.5,483.1094 L1521.5,458 L1511.5,448 L1435,448 A2.5,2.5 0 0 0 1432.5,450.5 " fill="#F1F1F1" style="stroke:#181818;stroke-width:0.5;"/><path d="M1511.5,448 L1511.5,455.5 A2.5,2.5 0 0 0 1514,458 L1521.5,458 " fill="#F1F1F1" style="stroke:#181818;stroke-width:0.5;"/><text fill="#000000" font-family="sans-serif" font-size="14" lengthAdjust="spacing" textLength="69" x="1442.5" y="472.5332">image1.jpg</text></g><!--MD5=[4676105ef63f1449634ebbfd1f309b74]
entity image2.png--><g id="elem_image2.png"><path d="M1557,450.5 L1557,483.1094 A2.5,2.5 0 0 0 1559.5,485.6094 L1648.5,485.6094 A2.5,2.5 0 0 0 1651,483.1094 L1651,458 L1641,448 L1559.5,448 A2.5,2.5 0 0 0 1557,450.5 " fill="#F1F1F1" style="stroke:#181818;stroke-width:0.5;"/><path d="M1641,448 L1641,455.5 A2.5,2.5 0 0 0 1643.5,458 L1651,458 " fill="#F1F1F1" style="stroke:#181818;stroke-width:0.5;"/><text fill="#000000" font-family="sans-serif" font-size="14" lengthAdjust="spacing" textLength="74" x="1567" y="472.5332">image2.png</text></g><!--MD5=[40753030c3047a8ca46e9059b682ecf7]
entity image3.gif--><g id="elem_image3.gif"><path d="M1434.5,548.5 L1434.5,581.1094 A2.5,2.5 0 0 0 1437,583.6094 L1517,583.6094 A2.5,2.5 0 0 0 1519.5,581.1094 L1519.5,556 L1509.5,546 L1437,546 A2.5,2.5 0 0 0 1434.5,548.5 " fill="#F1F1F1" style="stroke:#181818;stroke-width:0.5;"/><path d="M1509.5,546 L1509.5,553.5 A2.5,2.5 0 0 0 1512,556 L1519.5,556 " fill="#F1F1F1" style="stroke:#181818;stroke-width:0.5;"/><text fill="#000000" font-family="sans-serif" font-size="14" lengthAdjust="spacing" textLength="65" x="1444.5" y="570.5332">image3.gif</text></g><!--MD5=[7c9904f7b467858d42dc998f29a3e2ac]
entity image4.png--><g id="elem_image4.png"><path d="M1555,548.5 L1555,581.1094 A2.5,2.5 0 0 0 1557.5,583.6094 L1646.5,583.6094 A2.5,2.5 0 0 0 1649,581.1094 L1649,556 L1639,546 L1557.5,546 A2.5,2.5 0 0 0 1555,548.5 " fill="#F1F1F1" style="stroke:#181818;stroke-width:0.5;"/><path d="M1639,546 L1639,553.5 A2.5,2.5 0 0 0 1641.5,556 L1649,556 " fill="#F1F1F1" style="stroke:#181818;stroke-width:0.5;"/><text fill="#000000" font-family="sans-serif" font-size="14" lengthAdjust="spacing" textLength="74" x="1565" y="570.5332">image4.png</text></g><!--MD5=[1c37cff66092c63af3eabf90e42e8e29]
entity sound1.mp3--><g id="elem_sound1.mp3"><path d="M1147,450.5 L1147,483.1094 A2.5,2.5 0 0 0 1149.5,485.6094 L1242.5,485.6094 A2.5,2.5 0 0 0 1245,483.1094 L1245,458 L1235,448 L1149.5,448 A2.5,2.5 0 0 0 1147,450.5 " fill="#F1F1F1" style="stroke:#181818;stroke-width:0.5;"/><path d="M1235,448 L1235,455.5 A2.5,2.5 0 0 0 1237.5,458 L1245,458 " fill="#F1F1F1" style="stroke:#181818;stroke-width:0.5;"/><text fill="#000000" font-family="sans-serif" font-size="14" lengthAdjust="spacing" textLength="78" x="1157" y="472.5332">sound1.mp3</text></g><!--MD5=[e23a733d5a24a2a1f40b51e0a3846b54]
entity sound2.wav--><g id="elem_sound2.wav"><path d="M1280.5,450.5 L1280.5,483.1094 A2.5,2.5 0 0 0 1283,485.6094 L1373,485.6094 A2.5,2.5 0 0 0 1375.5,483.1094 L1375.5,458 L1365.5,448 L1283,448 A2.5,2.5 0 0 0 1280.5,450.5 " fill="#F1F1F1" style="stroke:#181818;stroke-width:0.5;"/><path d="M1365.5,448 L1365.5,455.5 A2.5,2.5 0 0 0 1368,458 L1375.5,458 " fill="#F1F1F1" style="stroke:#181818;stroke-width:0.5;"/><text fill="#000000" font-family="sans-serif" font-size="14" lengthAdjust="spacing" textLength="75" x="1290.5" y="472.5332">sound2.wav</text></g><!--MD5=[099cecbd925d4ca2e14198b14a5a0573]
entity sound3.mp3--><g id="elem_sound3.mp3"><path d="M1147,548.5 L1147,581.1094 A2.5,2.5 0 0 0 1149.5,583.6094 L1242.5,583.6094 A2.5,2.5 0 0 0 1245,581.1094 L1245,556 L1235,546 L1149.5,546 A2.5,2.5 0 0 0 1147,548.5 " fill="#F1F1F1" style="stroke:#181818;stroke-width:0.5;"/><path d="M1235,546 L1235,553.5 A2.5,2.5 0 0 0 1237.5,556 L1245,556 " fill="#F1F1F1" style="stroke:#181818;stroke-width:0.5;"/><text fill="#000000" font-family="sans-serif" font-size="14" lengthAdjust="spacing" textLength="78" x="1157" y="570.5332">sound3.mp3</text></g><!--MD5=[fce70f15258606c676a1b0e0d71ea9b3]
entity sound4.wav--><g id="elem_sound4.wav"><path d="M1280.5,548.5 L1280.5,581.1094 A2.5,2.5 0 0 0 1283,583.6094 L1373,583.6094 A2.5,2.5 0 0 0 1375.5,581.1094 L1375.5,556 L1365.5,546 L1283,546 A2.5,2.5 0 0 0 1280.5,548.5 " fill="#F1F1F1" style="stroke:#181818;stroke-width:0.5;"/><path d="M1365.5,546 L1365.5,553.5 A2.5,2.5 0 0 0 1368,556 L1375.5,556 " fill="#F1F1F1" style="stroke:#181818;stroke-width:0.5;"/><text fill="#000000" font-family="sans-serif" font-size="14" lengthAdjust="spacing" textLength="75" x="1290.5" y="570.5332">sound4.wav</text></g><!--MD5=[ae9758c6b2e5812d65dfd358b63707cc]
entity characters.ymmp--><g id="elem_characters.ymmp"><path d="M81,450.5 L81,483.1094 A2.5,2.5 0 0 0 83.5,485.6094 L206.5,485.6094 A2.5,2.5 0 0 0 209,483.1094 L209,458 L199,448 L83.5,448 A2.5,2.5 0 0 0 81,450.5 " fill="#F1F1F1" style="stroke:#181818;stroke-width:0.5;"/><path d="M199,448 L199,455.5 A2.5,2.5 0 0 0 201.5,458 L209,458 " fill="#F1F1F1" style="stroke:#181818;stroke-width:0.5;"/><text fill="#000000" font-family="sans-serif" font-size="14" lengthAdjust="spacing" textLength="108" x="91" y="472.5332">characters.ymmp</text></g><!--MD5=[22b203bd552862dd3a0c2140368692b6]
entity reimu_emotion.ymmp--><g id="elem_reimu_emotion.ymmp"><path d="M244,450.5 L244,483.1094 A2.5,2.5 0 0 0 246.5,485.6094 L395.5,485.6094 A2.5,2.5 0 0 0 398,483.1094 L398,458 L388,448 L246.5,448 A2.5,2.5 0 0 0 244,450.5 " fill="#F1F1F1" style="stroke:#181818;stroke-width:0.5;"/><path d="M388,448 L388,455.5 A2.5,2.5 0 0 0 390.5,458 L398,458 " fill="#F1F1F1" style="stroke:#181818;stroke-width:0.5;"/><text fill="#000000" font-family="sans-serif" font-size="14" lengthAdjust="spacing" textLength="134" x="254" y="472.5332">reimu_emotion.ymmp</text></g><!--MD5=[07c91d2ab3d6ec6982b60aba7bf8725f]
entity marisa_emotion.ymmp--><g id="elem_marisa_emotion.ymmp"><path d="M81.5,548.5 L81.5,581.1094 A2.5,2.5 0 0 0 84,583.6094 L240,583.6094 A2.5,2.5 0 0 0 242.5,581.1094 L242.5,556 L232.5,546 L84,546 A2.5,2.5 0 0 0 81.5,548.5 " fill="#F1F1F1" style="stroke:#181818;stroke-width:0.5;"/><path d="M232.5,546 L232.5,553.5 A2.5,2.5 0 0 0 235,556 L242.5,556 " fill="#F1F1F1" style="stroke:#181818;stroke-width:0.5;"/><text fill="#000000" font-family="sans-serif" font-size="14" lengthAdjust="spacing" textLength="141" x="91.5" y="570.5332">marisa_emotion.ymmp</text></g><!--MD5=[bac10c8b4c5b1a9e987a9ff59649d863]
link キャラ素材 to YukkuriMovieMaker4--><!--MD5=[dfb1f6e7d7e9207a8d40cf9a39693605]
link YukkuriMovieMaker4 to Characters--><!--MD5=[404844840a52cd3d8c9ad6a1f73db975]
@startuml directory

folder "[Software]"{
    folder "[Project]"{
            folder "DynamicItem" {
                    folder "[DynamicItem2]" {
                        file "audio.ymmp"
                        file "audio.mp3"
                    }
                    folder "[DynamicItem1]" {
                        file "sample.ymmp"
                        file "sample.png"
                    }

            }
            folder "SingleItem" {
                file single_item.ymmp
                file image.png
                file sound.mp3
                file video.mp4
            }
            folder "MultipleItem"{
                file multiple_item.ymmp
                file image.jpg
                file sound.wav
                file video.avi
            }
            folder "[Movie]" {
                file template.csv
                file scenario.csv
                file scenario.txt
                file Movie.ymmp
                file complete.ymmp

                    folder "[Dynamic Item1]"{
                        file "image1.jpg"
                        file "image2.png"
                        file "image3.gif"
                        file "image4.png"
                    }
                    folder "[Dynamic Item2]"{
                        file "sound1.mp3"
                        file "sound2.wav"
                        file "sound3.mp3"
                        file "sound4.wav"
                    }
            }
    }
    folder "キャラ素材"
    folder YukkuriMovieMaker4
    folder "Characters" {
        file characters.ymmp
        file reimu_emotion.ymmp
        file marisa_emotion.ymmp
    }
}
キャラ素材 - -[hidden]> YukkuriMovieMaker4
YukkuriMovieMaker4 - -[hidden]> Characters

@enduml

PlantUML version 1.2022.7(Tue Aug 23 02:01:30 JST 2022)
(GPL source distribution)
Java Runtime: Java(TM) SE Runtime Environment
JVM: Java HotSpot(TM) 64-Bit Server VM
Default Encoding: MS932
Language: ja
Country: JP
--></g></svg>