<svg xmlns="http://www.w3.org/2000/svg" xmlns:xlink="http://www.w3.org/1999/xlink" xmlns:lucid="lucid" width="640" height="1091"><g transform="translate(474.33333333333326 394.66666666666663)" lucid:page-tab-id="qQ57FBwDpF6."><path d="M-454.33-366.67a8 8 0 0 1 8-8h164a8 8 0 0 1 8 8v104a8 8 0 0 1-8 8h-164a8 8 0 0 1-8-8z" stroke="#000" stroke-opacity="0" stroke-width="2" fill="#ffbd50"/><use xlink:href="#a" transform="matrix(1,0,0,1,-454.33333333333326,-374.66666666666663) translate(14.444444444444468 77.02222222222221)"/><use xlink:href="#b" transform="matrix(1,0,0,1,-454.33333333333326,-374.66666666666663) translate(52.22222222222223 77.02222222222221)"/><use xlink:href="#c" transform="matrix(1,0,0,1,-454.33333333333326,-374.66666666666663) translate(90 77.02222222222221)"/><use xlink:href="#d" transform="matrix(1,0,0,1,-454.33333333333326,-374.66666666666663) translate(127.77777777777777 77.02222222222221)"/><path d="M-364.33-253.67v9.86m0 9.84v19.7m0 9.86v19.7m0 9.87v19.7m0 9.86v19.7m0 9.86V-96m0 9.85v19.7m0 9.87v19.7m0 9.86v19.7m0 9.86v19.7m0 9.86v19.7m0 9.87v19.7m0 9.86v19.7m0 9.86v19.7m0 9.85v19.7m0 9.87v19.7m0 9.86v19.7m0 9.86v19.7m0 9.86v19.7m0 9.87v19.7m0 9.86v19.7m0 9.86V377m0 9.85v19.7m0 9.87v19.7m0 9.86v19.7m0 9.86v19.7m0 9.86v19.7m0 9.87v19.7m0 9.86v19.7m0 9.86v19.7m0 9.85v19.7m0 9.87v19.7m0 9.86v9.85" stroke="#999" stroke-width="2" fill="none"/><path d="M-363.33-253.64h-2v-1.03h2z" stroke="#999" stroke-width=".05" fill="#999"/><path d="M-364.33 692.3v1.03" stroke="#999" stroke-width="2" fill="none"/><path d="M-384.33-189.67a5 5 0 0 1 5-5h30a5 5 0 0 1 5 5v830a5 5 0 0 1-5 5h-30a5 5 0 0 1-5-5z" stroke="#000" stroke-opacity="0" stroke-width="2" fill="#d2d3d5"/><path d="M-34.33-366.67a8 8 0 0 1 8-8h164a8 8 0 0 1 8 8v104a8 8 0 0 1-8 8h-164a8 8 0 0 1-8-8z" stroke="#000" stroke-opacity="0" stroke-width="2" fill="#ffcc78"/><use xlink:href="#e" transform="matrix(1,0,0,1,-34.33333333333326,-374.66666666666663) translate(46.721111111111114 50.30555555555554)"/><use xlink:href="#f" transform="matrix(1,0,0,1,-34.33333333333326,-374.66666666666663) translate(44.618888888888904 86.48333333333332)"/><path d="M55.67-253.67v10m0 10v20m0 9.98v20m0 10v20m0 10v19.98m0 10v19.98m0 10v20m0 10v19.98m0 10v20m0 9.98v20m0 10V56.2m0 10v20m0 9.98v20m0 10v19.98m0 10v20m0 10v19.98m0 10v19.98m0 10v20m0 10v19.98m0 10v20m0 9.98v20m0 10v19.98m0 10v20m0 9.98v20m0 10V476m0 10v20m0 10V536m0 10v19.98m0 10v20m0 10v19.98m0 10v20m0 9.98v10" stroke="#999" stroke-width="2" fill="none"/><path d="M56.67-253.64h-2v-1.03h2z" stroke="#999" stroke-width=".05" fill="#999"/><path d="M55.67 675.9v1.04" stroke="#999" stroke-width="2" fill="none"/><path d="M35.67-195a5 5 0 0 1 5-5h30a5 5 0 0 1 5 5v835.33a5 5 0 0 1-5 5h-30a5 5 0 0 1-5-5z" stroke="#000" stroke-opacity="0" stroke-width="2" fill="#d2d3d5"/><path d="M-343.33-124.67h360.5" stroke="#999" stroke-width="2" fill="none"/><path d="M-343.3-123.67h-1.03v-2h1.02z" stroke="#999" stroke-width=".05" fill="#999"/><path d="M32.43-124.67l-14.27 4.64v-9.27z" stroke="#999" stroke-width="2" fill="#999"/><use xlink:href="#g" transform="matrix(1,0,0,1,-235.33340460083465,-155.30651701267556) translate(0 20.88)"/><use xlink:href="#h" transform="matrix(1,0,0,1,-235.33340460083465,-155.30651701267556) translate(18 20.88)"/><use xlink:href="#i" transform="matrix(1,0,0,1,-235.33340460083465,-155.30651701267556) translate(36 20.88)"/><use xlink:href="#j" transform="matrix(1,0,0,1,-235.33340460083465,-155.30651701267556) translate(54 20.88)"/><use xlink:href="#k" transform="matrix(1,0,0,1,-235.33340460083465,-155.30651701267556) translate(72 20.88)"/><use xlink:href="#l" transform="matrix(1,0,0,1,-235.33340460083465,-155.30651701267556) translate(90 20.88)"/><use xlink:href="#m" transform="matrix(1,0,0,1,-235.33340460083465,-155.30651701267556) translate(108 20.88)"/><use xlink:href="#n" transform="matrix(1,0,0,1,-235.33340460083465,-155.30651701267556) translate(126 20.88)"/><use xlink:href="#o" transform="matrix(1,0,0,1,-235.33340460083465,-155.30651701267556) translate(144 20.88)"/><path d="M-325.83 60h360.5" stroke="#999" stroke-width="2" fill="none"/><path d="M-341.1 60l14.27-4.63v9.27z" stroke="#999" stroke-width="2" fill="#999"/><path d="M35.67 61h-1.03v-2h1.03z" stroke="#999" stroke-width=".05" fill="#999"/><g><use xlink:href="#p" transform="matrix(1,0,0,1,-230.87835245618356,29.360000048675175) translate(0 20.88)"/><use xlink:href="#q" transform="matrix(1,0,0,1,-230.87835245618356,29.360000048675175) translate(99.09 20.88)"/><use xlink:href="#r" transform="matrix(1,0,0,1,-230.87835245618356,29.360000048675175) translate(117.09 20.88)"/><use xlink:href="#s" transform="matrix(1,0,0,1,-230.87835245618356,29.360000048675175) translate(135.09 20.88)"/></g><path d="M-343.33 219.33h360.5" stroke="#999" stroke-width="2" fill="none"/><path d="M-343.3 220.33h-1.03v-2h1.02z" stroke="#999" stroke-width=".05" fill="#999"/><path d="M32.43 219.33l-14.27 4.64v-9.27z" stroke="#999" stroke-width="2" fill="#999"/><g><use xlink:href="#t" transform="matrix(1,0,0,1,-279.05533389458844,188.6909324172644) translate(0 20.88)"/><use xlink:href="#i" transform="matrix(1,0,0,1,-279.05533389458844,188.6909324172644) translate(123.44400000000002 20.88)"/><use xlink:href="#j" transform="matrix(1,0,0,1,-279.05533389458844,188.6909324172644) translate(141.44400000000002 20.88)"/><use xlink:href="#k" transform="matrix(1,0,0,1,-279.05533389458844,188.6909324172644) translate(159.44400000000002 20.88)"/><use xlink:href="#l" transform="matrix(1,0,0,1,-279.05533389458844,188.6909324172644) translate(177.44400000000002 20.88)"/><use xlink:href="#m" transform="matrix(1,0,0,1,-279.05533389458844,188.6909324172644) translate(195.44400000000002 20.88)"/><use xlink:href="#n" transform="matrix(1,0,0,1,-279.05533389458844,188.6909324172644) translate(213.44400000000002 20.88)"/><use xlink:href="#o" transform="matrix(1,0,0,1,-279.05533389458844,188.6909324172644) translate(231.44400000000002 20.88)"/></g><path d="M-325.83 420h360.5" stroke="#999" stroke-width="2" fill="none"/><path d="M-341.1 420l14.27-4.63v9.26z" stroke="#999" stroke-width="2" fill="#999"/><path d="M35.67 421h-1.03v-2h1.03z" stroke="#999" stroke-width=".05" fill="#999"/><g><use xlink:href="#u" transform="matrix(1,0,0,1,-221.21248702942367,389.3599948990268) translate(0 20.88)"/><use xlink:href="#q" transform="matrix(1,0,0,1,-221.21248702942367,389.3599948990268) translate(79.758 20.88)"/><use xlink:href="#r" transform="matrix(1,0,0,1,-221.21248702942367,389.3599948990268) translate(97.758 20.88)"/><use xlink:href="#s" transform="matrix(1,0,0,1,-221.21248702942367,389.3599948990268) translate(115.758 20.88)"/></g><defs><path d="M706-142c73-1 155 3 219-6v91c-246-9-506-2-758-4-28 0-57 1-88 4v-91c170 13 360 3 539 6 18-107 60-375 63-445-162 2-334-4-489 4v-89c144 13 310 3 463 6 20 0 50-4 62-8l67 31c-21 105-56 376-78 501" id="v"/><use transform="matrix(0.037777777777777764,0,0,0.037777777777777764,0,0)" xlink:href="#v" id="a"/><path d="M102-335v-98c214 10 463 3 687 5 50 0 86-3 108-5v98c-206-10-441-3-656-5-55 0-108 2-139 5" id="w"/><use transform="matrix(0.037777777777777764,0,0,0.037777777777777764,0,0)" xlink:href="#w" id="b"/><path d="M855-624l-49 17c-15-43-38-103-57-141l48-15c18 36 45 98 58 139zm-153 71c57 0 163 2 201-6v85c-38-4-147-3-201-3 4 287-48 434-286 541L349 0c193-67 281-178 272-477H337c1 75-2 188 4 252h-89c7-61 5-178 5-252-56-1-168 0-208 3v-86c37 8 151 8 208 7-1-59 3-155-5-201h89c-6 47-4 143-4 201h284c0-59 2-162-4-207h90c-7 44-5 148-5 207zm146-225l48-15c19 36 46 97 60 138l-49 16c-16-44-39-102-59-139" id="x"/><use transform="matrix(0.037777777777777764,0,0,0.037777777777777764,0,0)" xlink:href="#x" id="c"/><use transform="matrix(0.037777777777777764,0,0,0.037777777777777764,0,0)" xlink:href="#w" id="d"/><path d="M219 0v-285L-1-733h99c56 123 110 244 166 367h4c59-123 110-244 168-367h96L312-285V0h-93" id="y"/><path d="M100 0v-733h112c65 181 131 360 193 545h5c59-186 126-364 190-545h112V0h-87c2-212-8-425 12-622h-4C570-437 502-256 436-74h-62c-66-182-134-363-197-548h-4c18 198 9 411 11 622h-84" id="z"/><path d="M371 13C187 13 58-134 58-369s129-378 313-378 313 143 313 378S555 13 371 13zm0-81c131 0 218-118 218-301 0-184-87-297-218-297-132 0-218 113-218 297 0 183 86 301 218 301" id="A"/><path d="M235 0L1-733h97c64 212 127 426 190 639h4c63-213 125-426 189-639h94L342 0H235" id="B"/><path d="M100 0v-733h93V0h-93" id="C"/><path d="M100 0v-733h423v78H193v230h278v79H193v267h341V0H100" id="D"/><g id="e"><use transform="matrix(0.02444444444444444,0,0,0.02444444444444444,0,0)" xlink:href="#y"/><use transform="matrix(0.02444444444444444,0,0,0.02444444444444444,12.979999999999997,0)" xlink:href="#z"/><use transform="matrix(0.02444444444444444,0,0,0.02444444444444444,32.82888888888888,0)" xlink:href="#A"/><use transform="matrix(0.02444444444444444,0,0,0.02444444444444444,50.966666666666654,0)" xlink:href="#B"/><use transform="matrix(0.02444444444444444,0,0,0.02444444444444444,65.02222222222221,0)" xlink:href="#C"/><use transform="matrix(0.02444444444444444,0,0,0.02444444444444444,72.18444444444444,0)" xlink:href="#D"/></g><path d="M100 0v-733h93v307h342v-307h92V0h-92v-346H193V0h-93" id="E"/><path d="M100 0v-733h93v654h320V0H100" id="F"/><path d="M100 0v-733h209c165 0 275 55 275 215 0 155-110 227-270 227H193V0h-93zm93-366h109c129 0 190-47 190-152 0-106-65-140-194-140H193v292" id="G"/><path d="M193-658v272h123c115 0 178-46 178-141 0-97-63-131-178-131H193zM608 0H503L325-311H193V0h-93v-733h230c149 0 256 53 256 206 0 114-66 182-166 206" id="H"/><g id="f"><use transform="matrix(0.02444444444444444,0,0,0.02444444444444444,0,0)" xlink:href="#E"/><use transform="matrix(0.02444444444444444,0,0,0.02444444444444444,17.795555555555552,0)" xlink:href="#D"/><use transform="matrix(0.02444444444444444,0,0,0.02444444444444444,32.16888888888888,0)" xlink:href="#F"/><use transform="matrix(0.02444444444444444,0,0,0.02444444444444444,45.417777777777765,0)" xlink:href="#G"/><use transform="matrix(0.02444444444444444,0,0,0.02444444444444444,60.86666666666664,0)" xlink:href="#D"/><use transform="matrix(0.02444444444444444,0,0,0.02444444444444444,75.23999999999998,0)" xlink:href="#H"/></g><path d="M738-277H259v238h479v-238zM184 76v-423h633V74h-79V32H259v44h-75zm438-756l58-42c101 80 219 197 270 279l-64 49c-17-28-42-61-71-96-272 15-560 25-743 33l-5-74c44-1 95-3 150-5 59-89 127-212 166-304l82 28c-46 89-106 191-162 272 137-5 294-12 449-19-42-43-87-85-130-121" id="I"/><use transform="matrix(0.018,0,0,0.018,0,0)" xlink:href="#I" id="g"/><path d="M934-553H584c83 171 227 330 384 406-18 15-44 44-55 65-151-83-285-235-375-408v306h190v74H538V76h-77v-186H266v-74h195v-306C369-317 234-166 87-81c-11-18-36-46-53-60 152-79 297-241 381-412H68v-74h393v-209h77v209h396v74" id="J"/><use transform="matrix(0.018,0,0,0.018,0,0)" xlink:href="#J" id="h"/><path d="M271-140c44 0 99-66 150-233 25-82 44-176 55-267-190 24-306 187-306 320 0 125 58 180 101 180zm215 91c184-13 336-101 336-305 0-150-95-273-263-287-13 92-32 192-59 285C439-153 360-48 268-48 180-48 91-150 91-313c0-215 192-403 434-403 232 0 380 164 380 364C905-144 768-5 532 26" id="K"/><use transform="matrix(0.018,0,0,0.018,0,0)" xlink:href="#K" id="i"/><path d="M442-544h90c0 271-24 454-279 581l-73-60c27-9 61-25 89-44 174-110 184-270 173-477zm440-179l49 47c-7 10-20 25-27 36-40 68-135 197-249 276l-66-53c92-54 186-162 218-224-227 3-465-7-683 6v-90c215 17 460 4 688 8 19 0 55-3 70-6" id="L"/><use transform="matrix(0.018,0,0,0.018,0,0)" xlink:href="#L" id="j"/><path d="M483-576c17 40 66 172 79 216l-74 26c-11-45-57-172-78-217zM296 7c234-64 436-272 463-554l86 27c-36 132-72 252-157 357C596-46 474 32 362 75zm-45-533c20 43 72 174 91 226l-76 28c-15-52-69-190-89-225" id="M"/><use transform="matrix(0.018,0,0,0.018,0,0)" xlink:href="#M" id="k"/><path d="M871-652c36 0 66-30 66-66s-30-67-66-67c-37 0-66 31-66 67s29 66 66 66zm-741-39c200 12 425 4 634 5-22-76 35-145 107-145 62 0 112 51 112 113 0 74-71 131-150 106-22 112-70 272-151 380C590-115 471-22 288 35l-68-75c194-48 306-133 390-240 71-91 117-230 131-326-202 1-414-3-611 3v-88" id="N"/><use transform="matrix(0.018,0,0,0.018,0,0)" xlink:href="#N" id="l"/><path d="M776-604H229v475h547v-475zm84-81c-4 226-3 464 0 691h-86c0-7 1-30 1-57H229c1 26 1 50 2 57h-86c5-220 4-468 1-691 236 4 478 3 714 0" id="O"/><use transform="matrix(0.018,0,0,0.018,0,0)" xlink:href="#O" id="m"/><path d="M102-335v-98c214 10 463 3 687 5 50 0 86-3 108-5v98c-206-10-441-3-656-5-55 0-108 2-139 5" id="P"/><use transform="matrix(0.018,0,0,0.018,0,0)" xlink:href="#P" id="n"/><path d="M871-622l-56 28c-27-52-59-105-93-150l55-26c26 35 70 102 94 148zm-124 53l-57 26c-25-52-56-107-89-152l55-25c26 37 68 104 91 151zM395-761c-9 85-5 176-6 268 132 40 321 111 427 164l-35 85c-108-59-281-125-392-160 2 150-6 305 6 447h-96c13-222 2-468 6-700 0-28-2-73-8-104h98" id="Q"/><use transform="matrix(0.018,0,0,0.018,0,0)" xlink:href="#Q" id="o"/><path d="M234 13C157 13 83-19 31-62l45-60c47 38 96 64 161 64 72 0 107-38 107-85 0-55-64-80-124-103-76-28-162-65-162-157 0-86 69-154 187-154 67 0 126 28 169 61l-44 59c-38-28-76-48-125-48-68 0-99 36-99 78 0 52 59 71 120 94 79 30 166 62 166 165 0 88-70 161-198 161" id="R"/><path d="M306 13C162 13 51-91 51-271c0-181 123-286 262-286 71 0 120 30 159 64l-47 61c-32-29-65-49-109-49-98 0-170 85-170 210S214-63 314-63c50 0 94-23 128-54l39 61c-48 44-110 69-175 69" id="S"/><path d="M311 13C167 13 51-92 51-271c0-176 119-286 245-286 154-3 234 132 212 307H142c6 116 77 190 180 190 53 0 96-16 136-43l33 60c-48 31-106 56-180 56zM141-315h291c0-110-50-169-135-169-77 0-145 62-156 169" id="T"/><path d="M92 0v-543h75l8 78h3c52-51 108-92 182-92 114 0 166 74 166 213V0h-91v-332c0-102-31-145-103-145-56 0-94 28-149 83V0H92" id="U"/><path d="M217 13C126 13 58-43 58-141c0-118 103-177 334-203 0-70-23-137-112-137-63 0-120 29-163 58l-36-63c50-32 127-71 214-71 132 0 188 89 188 223V0h-75l-8-65h-3c-52 43-113 78-180 78zm26-73c53 0 96-25 149-72v-152c-183 22-245 67-245 137 0 62 42 87 96 87" id="V"/><path d="M92 0v-543h75l8 99h3c50-86 117-137 212-101l-17 80c-18-7-31-9-53-9-45 0-101 32-137 125V0H92" id="W"/><path d="M92 0v-543h91V0H92zm46-655c-36 0-63-25-63-59 0-37 27-59 63-59s63 22 63 59c0 34-27 59-63 59" id="X"/><path d="M303 13C170 13 51-91 51-271c0-181 119-286 252-286s252 105 252 286C555-91 436 13 303 13zm0-76c94 0 158-83 158-208s-64-210-158-210-157 85-157 210S209-63 303-63" id="Y"/><path d="M139 13c-36 0-66-28-66-69s30-71 66-71 66 30 66 71-30 69-66 69" id="Z"/><path d="M263 13c-116 0-155-72-155-181v-301H27v-69l85-5 11-152h76v152h147v74H199v303c0 67 21 105 84 105 19 0 44-7 62-14l18 68c-31 10-67 20-100 20" id="aa"/><path d="M15 0l179-283L29-543h98c43 70 84 140 127 210h4c39-71 77-140 116-210h95L304-274 483 0H383c-48-73-92-149-138-224h-5C197-151 154-74 111 0H15" id="ab"/><g id="p"><use transform="matrix(0.018,0,0,0.018,0,0)" xlink:href="#R"/><use transform="matrix(0.018,0,0,0.018,8.424,0)" xlink:href="#S"/><use transform="matrix(0.018,0,0,0.018,17.586,0)" xlink:href="#T"/><use transform="matrix(0.018,0,0,0.018,27.557999999999996,0)" xlink:href="#U"/><use transform="matrix(0.018,0,0,0.018,38.556,0)" xlink:href="#V"/><use transform="matrix(0.018,0,0,0.018,48.708,0)" xlink:href="#W"/><use transform="matrix(0.018,0,0,0.018,55.69200000000001,0)" xlink:href="#X"/><use transform="matrix(0.018,0,0,0.018,60.641999999999996,0)" xlink:href="#Y"/><use transform="matrix(0.018,0,0,0.018,71.55,0)" xlink:href="#Z"/><use transform="matrix(0.018,0,0,0.018,76.55399999999999,0)" xlink:href="#aa"/><use transform="matrix(0.018,0,0,0.018,83.34,0)" xlink:href="#ab"/><use transform="matrix(0.018,0,0,0.018,92.30400000000002,0)" xlink:href="#aa"/></g><path d="M878-441c-104 35-177 66-289 117 1 57 2 141 3 189h-77c3-38 4-102 4-154-92 50-156 101-156 166 0 78 77 89 179 89 77 0 183-9 270-24l-2 81C627 35 282 94 283-112c0-117 118-191 233-251-10-41-46-61-89-61-128 6-195 93-261 177l-68-51c126-122 191-224 228-302-66 0-130-1-204-6v-75c82 8 153 12 232 9 14-44 23-89 25-123l82 7c-7 28-16 69-30 114 101-5 209-14 303-30l-1 74c-98 15-220 24-328 28-22 51-53 106-89 152 87-54 243-58 268 53 102-48 174-74 262-119" id="ac"/><use transform="matrix(0.018,0,0,0.018,0,0)" xlink:href="#ac" id="q"/><path d="M798-512H548c29 82 70 155 124 216 54-60 97-132 126-216zm-320 0h-23c-3 134-26 303-117 422-11-13-43-35-60-41 97-125 106-298 106-427v-229h536v69H456v140h371c22-7 41 9 61 13-32 132-90 238-165 320 64 56 142 99 233 124-17 15-38 43-48 64-93-30-171-77-236-137-64 56-137 99-214 128-9-18-28-47-42-62 73-24 144-64 205-119-62-73-109-162-143-265zM279-653l-57 48c-31-49-99-118-161-164l55-44c62 45 132 111 163 160zm-28 208v319C300-52 389-19 509-14c109 4 333 1 451-7-9 18-21 53-25 76-109 4-316 6-426 2-133-5-226-40-290-118-45 42-92 85-142 128L37-7c45-31 96-74 142-115v-253H52v-70h199" id="ad"/><use transform="matrix(0.018,0,0,0.018,0,0)" xlink:href="#ad" id="r"/><path d="M346-252l61-25C462-192 521-81 542-9l-66 27c-7-22-16-48-28-76C306-43 159-29 53-18L42-91c22-1 47-3 74-5 33-78 71-191 95-280H43v-70h214v-165H83v-67h174v-159h71v159h169v67H328v165h203v70H294c-30 87-69 193-103 273 70-6 148-13 226-20-21-45-46-90-71-129zm568-525v584c-1 98-65 91-177 93-3-22-15-56-25-78 52 2 97 2 112 1 13 0 17-3 17-17v-513H639V76h-71v-853h346" id="ae"/><use transform="matrix(0.018,0,0,0.018,0,0)" xlink:href="#ae" id="s"/><path d="M105 170v-961h199v51H174v858h130v52H105" id="af"/><path d="M92 0v-543h75l8 79h3c47-52 104-93 169-93 83 0 128 40 150 104 56-61 113-104 179-104 112 0 165 74 165 213V0h-91v-332c0-102-32-145-101-145-42 0-86 27-137 83V0h-91v-332c0-102-32-145-101-145-41 0-87 27-137 83V0H92" id="ag"/><path d="M209 0L13-543h95c51 155 104 312 153 469h4c48-158 101-314 153-469h90L315 0H209" id="ah"/><path d="M34 170v-52h130v-858H34v-51h199v961H34" id="ai"/><path d="M303 45C261 172 181 266 37 223l18-73C155 188 210 96 231 1L13-543h95c55 152 111 298 163 454h5c45-155 95-303 143-454h89" id="aj"/><path d="M92 229v-772h75l8 62h3c49-40 110-76 173-76 140 0 216 110 216 277C567-22 349 94 181-50c3 91 2 185 2 279H92zm91-349C317-1 471-73 472-279c0-120-40-201-143-201-46 0-93 26-146 75v285" id="ak"/><g id="t"><use transform="matrix(0.018,0,0,0.018,0,0)" xlink:href="#af"/><use transform="matrix(0.018,0,0,0.018,6.606,0)" xlink:href="#ag"/><use transform="matrix(0.018,0,0,0.018,23.274,0)" xlink:href="#Y"/><use transform="matrix(0.018,0,0,0.018,34.182,0)" xlink:href="#ah"/><use transform="matrix(0.018,0,0,0.018,43.56,0)" xlink:href="#X"/><use transform="matrix(0.018,0,0,0.018,48.510000000000005,0)" xlink:href="#T"/><use transform="matrix(0.018,0,0,0.018,58.482000000000006,0)" xlink:href="#ai"/><use transform="matrix(0.018,0,0,0.018,64.566,0)" xlink:href="#Z"/><use transform="matrix(0.018,0,0,0.018,69.57000000000001,0)" xlink:href="#aj"/><use transform="matrix(0.018,0,0,0.018,78.94800000000001,0)" xlink:href="#ag"/><use transform="matrix(0.018,0,0,0.018,95.61600000000001,0)" xlink:href="#ag"/><use transform="matrix(0.018,0,0,0.018,112.28400000000002,0)" xlink:href="#ak"/></g><path d="M241 5C155 32 92-8 92-108v-688h91v694c3 37 15 43 45 37" id="al"/><g id="u"><use transform="matrix(0.018,0,0,0.018,0,0)" xlink:href="#S"/><use transform="matrix(0.018,0,0,0.018,9.161999999999999,0)" xlink:href="#Y"/><use transform="matrix(0.018,0,0,0.018,20.069999999999997,0)" xlink:href="#ag"/><use transform="matrix(0.018,0,0,0.018,36.738,0)" xlink:href="#ak"/><use transform="matrix(0.018,0,0,0.018,47.897999999999996,0)" xlink:href="#al"/><use transform="matrix(0.018,0,0,0.018,53.028,0)" xlink:href="#T"/><use transform="matrix(0.018,0,0,0.018,63,0)" xlink:href="#aa"/><use transform="matrix(0.018,0,0,0.018,69.786,0)" xlink:href="#T"/></g></defs></g></svg>